<svg width="1000" height="1000" viewBox="0 0 1000 1000" fill="none" xmlns="http://www.w3.org/2000/svg">
<rect width="1000" height="1000" fill="white"/>
<rect width="1000" height="1000" fill="#304254"/>
<g clip-path="url(#clip0)">
<path d="M156.626 797.161C141.476 814.205 144.79 840.717 163.728 853.5L272.303 897.53C287.926 908.103 309.073 905.42 321.698 891.533L466.57 730.722L341.583 592.005L156.626 797.161ZM844.373 797.161C844.373 797.161 383.561 284.902 378.195 276.222C402.498 262.966 441.636 247.973 500.5 247.973C559.364 247.973 598.501 262.966 622.804 276.222C617.597 285.059 534.429 378.169 534.429 378.169L659.259 516.57L713.231 456.602C758.523 406.259 765.783 332.561 731.222 274.328L662.258 158.336C655.472 146.973 646.634 137.347 635.745 129.93C571.515 86.3734 434.692 83.0594 365.254 129.93C354.365 137.347 345.528 146.973 338.742 158.336L269.936 273.855C267.569 277.8 211.387 372.014 288.084 456.917L679.617 891.375C692.242 905.42 713.389 907.945 729.012 897.372L837.587 853.342C856.367 840.717 859.681 814.205 844.373 797.161Z" fill="url(#paint0_linear)"/>
</g>
<defs>
<linearGradient id="paint0_linear" x1="500.57" y1="96.0083" x2="500.57" y2="903.991" gradientUnits="userSpaceOnUse">
<stop stop-opacity="0.6"/>
<stop offset="1" stop-color="#304254"/>
</linearGradient>
<clipPath id="clip0">
<rect x="147" y="96" width="707" height="808" fill="white"/>
</clipPath>
</defs>
</svg>
