<svg width="1000" height="1000" viewBox="0 0 1000 1000" fill="none" xmlns="http://www.w3.org/2000/svg">
<rect width="1000" height="1000" fill="white"/>
<rect width="1000" height="1000" fill="#FED469"/>
<g clip-path="url(#clip0)">
<path d="M871.457 742.095C895.779 784.275 865.249 837 816.671 837H184.321C135.649 837 105.26 784.193 129.535 742.095L445.714 193.621C470.048 151.421 530.996 151.498 555.286 193.621L871.457 742.095V742.095ZM500.5 628.699C467.023 628.699 439.885 655.851 439.885 689.344C439.885 722.837 467.023 749.988 500.5 749.988C533.976 749.988 561.114 722.837 561.114 689.344C561.114 655.851 533.976 628.699 500.5 628.699ZM442.952 410.714L452.726 590.011C453.184 598.401 460.117 604.969 468.515 604.969H532.485C540.882 604.969 547.816 598.401 548.273 590.011L558.048 410.714C558.542 401.651 551.33 394.031 542.259 394.031H458.739C449.668 394.031 442.457 401.651 442.952 410.714V410.714Z" fill="url(#paint0_linear)"/>
</g>
<defs>
<linearGradient id="paint0_linear" x1="500.5" y1="162" x2="500" y2="932" gradientUnits="userSpaceOnUse">
<stop stop-color="#FB9650"/>
<stop offset="1" stop-color="#FED469"/>
</linearGradient>
<clipPath id="clip0">
<rect x="121" y="162" width="759" height="675" fill="white"/>
</clipPath>
</defs>
</svg>
