<svg width="1000" height="1000" viewBox="0 0 1000 1000" fill="none" xmlns="http://www.w3.org/2000/svg">
<rect width="1000" height="1000" fill="white"/>
<rect width="1000" height="1000" fill="#CF5353"/>
<g clip-path="url(#clip0)">
<path d="M604.95 479.651L524.091 641.37C514.329 661.056 486.02 660.406 477.072 640.394L384.498 434.91L335.689 551.562H182.593L479.512 854.989C491.063 866.866 509.773 866.866 521.325 854.989L818.406 551.562H640.906L604.95 479.651ZM854.687 203.232L850.783 199.164C766.995 113.587 629.842 113.587 545.892 199.164L500.5 245.695L455.108 199.327C371.32 113.587 234.005 113.587 150.217 199.327L146.312 203.232C67.0796 284.254 63.663 413.271 134.435 499.5H301.035L359.443 359.257C368.229 338.269 397.839 337.781 407.275 358.606L501.964 568.971L581.685 409.692C591.284 390.494 618.617 390.494 628.216 409.692L673.119 499.5H866.564C937.337 413.271 933.92 284.254 854.687 203.232Z" fill="url(#paint0_linear)"/>
</g>
<defs>
<linearGradient id="paint0_linear" x1="500" y1="341" x2="500" y2="878.5" gradientUnits="userSpaceOnUse">
<stop stop-color="white" stop-opacity="0.29"/>
<stop offset="1" stop-color="white" stop-opacity="0"/>
</linearGradient>
<clipPath id="clip0">
<rect x="84" y="83" width="833" height="833" fill="white"/>
</clipPath>
</defs>
</svg>
